<svg t="1756122873100" class="icon" viewBox="0 0 1024 1024" version="1.1" xmlns="http://www.w3.org/2000/svg" p-id="769" width="200" height="200"><path d="M0 0m204.8 0l614.4 0q204.8 0 204.8 204.8l0 614.4q0 204.8-204.8 204.8l-614.4 0q-204.8 0-204.8-204.8l0-614.4q0-204.8 204.8-204.8Z" fill="#546DFF" p-id="770"></path><path d="M791.296 413.44h-558.5408v-113.0752a51.2 51.2 0 0 1 51.2-51.2h456.1408a51.2 51.2 0 0 1 51.2 51.2v113.0496z m-344.9856-98.56a16.4352 16.4352 0 1 0 16.4352 16.4352 16.4352 16.4352 0 0 0-16.4352-16.4352z m-65.7152 0a16.4352 16.4352 0 1 0 16.4352 16.4352 16.4352 16.4352 0 0 0-16.4352-16.4352z m-65.7152 0a16.4352 16.4352 0 1 0 16.4352 16.4352 16.4352 16.4352 0 0 0-16.4096-16.4352z" fill="#FFFFFF" p-id="771"></path><path d="M740.096 774.8352h-456.1408a51.2 51.2 0 0 1-51.2-51.2v-277.3504h558.5408v277.3504a51.2 51.2 0 0 1-51.2 51.2z m-400.5376-139.648a24.6528 24.6528 0 1 0 0 49.28h344.96a24.6528 24.6528 0 0 0 0-49.28z m0-98.56a24.6528 24.6528 0 1 0 0 49.28h344.96a24.6528 24.6528 0 0 0 0-49.28z" fill="#FFFFFF" p-id="772"></path></svg>