<?xml version="1.0" encoding="UTF-8"?>
<svg xmlns="http://www.w3.org/2000/svg" viewBox="0 0 100 100" width="100" height="100">
  <!-- 背景 -->
  <circle cx="50" cy="50" r="46" fill="#F0F7FF" />
  <circle cx="50" cy="50" r="46" fill="none" stroke="#3B82F6" stroke-width="2" />
  
  <!-- 简化的地球网格线 -->
  <ellipse cx="50" cy="50" rx="38" ry="20" fill="none" stroke="#3B82F6" stroke-width="1.2" stroke-opacity="0.6" />
  <line x1="12" y1="50" x2="88" y2="50" stroke="#3B82F6" stroke-width="1.2" stroke-opacity="0.6" />
  <line x1="50" y1="12" x2="50" y2="88" stroke="#3B82F6" stroke-width="1.2" stroke-opacity="0.6" />
  
  <!-- 中心圆环 -->
  <circle cx="50" cy="50" r="15" fill="#E0EFFE" stroke="#3B82F6" stroke-width="1.5" />
  
  <!-- 中心点 - 代表用户的起点 -->
  <circle cx="50" cy="50" r="5" fill="#3B82F6" />
  
  <!-- 导航箭头 - 更加突出 -->
  <path d="M50 50 L65 30" stroke="#3B82F6" stroke-width="2.5" stroke-linecap="round" />
  <path d="M50 50 L75 55" stroke="#3B82F6" stroke-width="2.5" stroke-linecap="round" />
  <path d="M50 50 L35 75" stroke="#3B82F6" stroke-width="2.5" stroke-linecap="round" />
  <path d="M50 50 L25 35" stroke="#3B82F6" stroke-width="2.5" stroke-linecap="round" />
  
  <!-- 箭头终点 - 更大更明显 -->
  <circle cx="65" cy="30" r="4" fill="#3B82F6" />
  <circle cx="75" cy="55" r="4" fill="#3B82F6" />
  <circle cx="35" cy="75" r="4" fill="#3B82F6" />
  <circle cx="25" cy="35" r="4" fill="#3B82F6" />
  
  <!-- 简化的链接符号 - 更加突出 -->
  <path d="M38 38 Q44 32 50 38 T62 38" fill="none" stroke="#3B82F6" stroke-width="2.5" stroke-linecap="round" />
  <path d="M62 62 Q56 68 50 62 T38 62" fill="none" stroke="#3B82F6" stroke-width="2.5" stroke-linecap="round" />
</svg> 